<svg
   height="20"
   width="16"
   viewBox="0 -960 640 800"
   fill="currentColor"
   version="1.1"
   id="svg1"
   xmlns="http://www.w3.org/2000/svg"
   xmlns:svg="http://www.w3.org/2000/svg">
  <defs id="defs1" />
  <g
     id="g3"
     transform="translate(-160,-80)"
     style="fill:#0000ff">
    <path
       d="m 480,-186 c 81.33333,-74.66667 141.66667,-142.5 181,-203.5 39.33333,-61 59,-115.16667 59,-162.5 0,-72.66667 -23.16667,-132.16667 -69.5,-178.5 C 604.16667,-776.83333 547.33333,-800 480,-800 c -67.33333,0 -124.16667,23.16667 -170.5,69.5 -46.33333,46.33333 -69.5,105.83333 -69.5,178.5 0,47.33333 19.66667,101.5 59,162.5 39.33333,61 99.66667,128.83333 181,203.5 z m 0,106 C 372.66667,-171.33333 292.5,-256.16667 239.5,-334.5 186.5,-412.83333 160,-485.33333 160,-552 c 0,-100 32.16667,-179.66667 96.5,-239 64.33333,-59.33333 138.83333,-89 223.5,-89 84.66667,0 159.16667,29.66667 223.5,89 64.33333,59.33333 96.5,139 96.5,239 0,66.66667 -26.5,139.16667 -79.5,217.5 -53,78.33333 -133.16667,163.16667 -240.5,254.5 z"
       id="path1"
       style="fill:#0000ff" />
    <path
       d="m 382.38813,-397.1879 q -7.0842,0 -11.87645,-4.79225 -4.79226,-4.79226 -4.79226,-11.87646 v -34.17086 q -7.50092,-8.33436 -12.08481,-18.54394 -4.5839,-10.20959 -4.5839,-22.2944 v -158.35276 q 0,-34.58758 32.08727,-50.63122 32.08727,-16.04363 101.26242,-16.04363 71.67546,0 102.51258,15.41856 30.83712,15.41855 30.83712,51.25629 v 158.35276 q 0,12.08481 -4.5839,22.2944 -4.58389,10.20958 -12.08481,18.54394 v 34.17086 q 0,7.0842 -4.79226,11.87646 -4.79225,4.79225 -11.87646,4.79225 h -16.66871 q -7.0842,0 -11.87645,-4.79225 -4.79226,-4.79226 -4.79226,-11.87646 v -16.66871 H 415.72556 v 16.66871 q 0,7.0842 -4.79226,11.87646 -4.79225,4.79225 -11.87645,4.79225 z m 100.84571,-266.69939 h 93.34479 -186.68958 z m 65.84141,116.68099 H 382.38813 582.41267 Z m -166.68712,-33.33743 h 200.02454 v -50.00613 H 382.38813 Z m 41.67178,100.01227 q 10.41795,0 17.71051,-7.29256 7.29256,-7.29256 7.29256,-17.7105 0,-10.41795 -7.29256,-17.71051 -7.29256,-7.29256 -17.71051,-7.29256 -10.41794,0 -17.7105,7.29256 -7.29256,7.29256 -7.29256,17.71051 0,10.41794 7.29256,17.7105 7.29256,7.29256 17.7105,7.29256 z m 116.68099,0 q 10.41794,0 17.7105,-7.29256 7.29256,-7.29256 7.29256,-17.7105 0,-10.41795 -7.29256,-17.71051 -7.29256,-7.29256 -17.7105,-7.29256 -10.41795,0 -17.71051,7.29256 -7.29256,7.29256 -7.29256,17.71051 0,10.41794 7.29256,17.7105 7.29256,7.29256 17.71051,7.29256 z M 389.88905,-663.88729 h 186.68958 q -6.25077,-7.0842 -26.8783,-11.87645 -20.62753,-4.79226 -66.46649,-4.79226 -44.5888,0 -65.21634,5.20897 -20.62753,5.20898 -28.12845,11.45974 z m 25.83651,200.02454 h 133.34969 q 13.75169,0 23.54456,-9.79286 9.79286,-9.79287 9.79286,-23.54456 V -547.2063 H 382.38813 v 50.00613 q 0,13.75169 9.79287,23.54456 9.79287,9.79286 23.54456,9.79286 z"
       id="path1-5"
       style="display:inline;stroke-width:0.416718;fill:#0000ff" />
  </g>
</svg>
